<svg width="120" height="40" viewBox="0 0 120 40" fill="none" xmlns="http://www.w3.org/2000/svg">
<path d="M11.3793 8.38323V1.67665L8.5106 0L0 4.83832L8.60623 9.91617L11.3793 8.38323Z" transform="translate(0.5 14.8982)" fill="#E6E6E6"/>
<path d="M11.3793 10.6826V6.70659L8.60623 5.07784L0 0V10.2994L17.2603 20.2635V10.6826H11.3793Z" transform="translate(0.5 19.7365)" fill="#6E4E92"/>
<path d="M6.98061 5.89221C6.88498 7.23353 6.50248 8.28743 5.83311 9.05389C5.06811 9.96407 3.72936 10.3952 1.76906 10.3952H0V19.976L17.2603 10.012V0L8.55841 4.98204L6.98061 5.89221Z" transform="translate(17.7603 20.0239)" fill="#542784"/>
<path d="M3.05999 1.1018C3.01218 2.2994 2.77312 3.25748 2.3428 3.97605C1.86468 4.74251 1.05187 5.22155 0 5.46108V5.55688C1.19531 5.7964 2.05593 6.32335 2.53405 7.08982C2.86874 7.61676 3.05999 8.28742 3.20343 9.05389L4.82905 10.012L13.5309 5.07784L4.92467 0L3.05999 1.1018Z" transform="translate(21.4895 14.9462)" fill="#E6E6E6"/>
<path d="M0 6.17964H4.01624C4.82905 6.17964 5.4028 6.08383 5.83311 5.89221C6.26342 5.7006 6.55029 5.41317 6.74154 4.93413C6.93279 4.50299 7.02842 3.88024 7.02842 3.11377C7.02842 1.96407 6.78936 1.1497 6.35905 0.670658C5.92873 0.23952 5.16374 0 4.01624 0H0V6.17964Z" transform="translate(14.7959 21.7485)" fill="#6B4192"/>
<path d="M0 1.53293L2.77312 3.16168V0L0 1.53293Z" transform="translate(9.10621 23.2814)" fill="#6B4192"/>
<path d="M0.0478135 1.86826L1.62562 0.958084L0 0C0.0478124 0.383233 0.0956251 0.766466 0.0956251 1.24551C0.0478127 1.43712 0.0478135 1.62874 0.0478135 1.86826Z" transform="translate(24.693 24.0479)" fill="#6B4192"/>
<path d="M11.3793 16.5748V10.9222H19.1249C20.8462 10.9222 22.1371 11.3533 22.9021 12.1677C23.6671 12.982 24.0974 14.2275 24.0974 15.8084C24.0974 15.9042 24.0974 15.9521 24.0974 16.0479L25.9143 14.994L34.5205 10.012L17.2603 0L0 9.96407L8.5106 14.8982L11.3793 16.5748Z" transform="translate(0.5)" fill="#F2F2F2"/>
<path d="M6.5503 1.1497C6.40686 0.766467 6.11998 0.431138 5.68967 0.287425C5.25936 0.0958086 4.6378 0 3.8728 0H0V4.83832V5.79641H1.67343H3.82499C3.96843 5.79641 4.11186 5.79641 4.20749 5.79641C5.06811 5.7485 5.68967 5.50898 6.07217 5.12575C6.26342 4.93413 6.40686 4.69461 6.50248 4.45509C6.64592 4.02395 6.74154 3.54491 6.74154 2.87425C6.78936 2.10778 6.69373 1.53293 6.5503 1.1497Z" transform="translate(14.8438 13.4611)" fill="#F2F2F2"/>
<path d="M0 5.02994L8.65404 10.0599V0L0 5.02994Z" transform="translate(26.3665 9.96405)" fill="#CCCCCC"/>
<path d="M0 0V9.77246L8.5106 4.93413L0 0Z" transform="translate(0.5 9.96405)" fill="#B3B3B3"/>
<path d="M12.8137 4.02395L5.88092 0L0 3.25748V6.37126V10.3952H5.88092H7.64998C9.61029 10.3952 10.949 9.96407 11.714 9.05389C12.3834 8.28743 12.7659 7.23353 12.8615 5.89221C12.8615 5.7006 12.8615 5.46108 12.8615 5.26946C12.8615 4.79042 12.8615 4.40719 12.8137 4.02395ZM2.91655 1.77246H6.93279C8.08029 1.77246 8.84529 2.01198 9.2756 2.44311C9.70591 2.87425 9.94497 3.68862 9.94497 4.88623C9.94497 5.65269 9.84935 6.27545 9.6581 6.70659C9.46685 7.13772 9.17997 7.47305 8.74966 7.66467C8.31935 7.85629 7.69779 7.9521 6.93279 7.9521H2.91655V1.77246Z" transform="translate(11.8794 20.0239)" fill="#F2F2F2"/>
<path d="M11.5228 1.24551C10.7578 0.431138 9.46685 0 7.7456 0H0V5.65269L2.91655 7.37724V2.53892H6.78936C7.60217 2.53892 8.17592 2.63473 8.60623 2.82635C9.03654 3.01796 9.32341 3.30539 9.46685 3.68862C9.61029 4.07186 9.70591 4.69461 9.70591 5.46108C9.70591 6.08383 9.61029 6.61078 9.46685 7.04191L12.6703 5.17365C12.6703 5.07784 12.6703 5.02994 12.6703 4.93413C12.6703 3.30539 12.2878 2.05988 11.5228 1.24551Z" transform="translate(11.8794 10.9222)" fill="#542784"/>
<path d="M12.1443 5.98802C11.6662 5.22156 10.8056 4.69461 9.61029 4.45509V4.35928C10.6622 4.11976 11.475 3.64072 11.9531 2.87425C12.4312 2.15569 12.6703 1.1976 12.6703 0L9.46685 1.86826C9.37122 2.15569 9.22779 2.34731 9.03654 2.53892C8.65404 2.92216 8.03248 3.16168 7.17185 3.20958C7.02842 3.20958 6.93279 3.20958 6.78936 3.20958H4.58999H2.91655V2.2515L0 0.526947V7.23353L5.88092 3.97605L12.8137 8C12.6703 7.13772 12.479 6.46707 12.1443 5.98802Z" transform="translate(11.8794 16.0958)" fill="#B3B3B3"/>
<path d="M0 0H4.67452C5.68523 0 6.38009 0.246154 6.88544 0.676923C7.32762 1.16923 7.5803 1.84615 7.5803 2.76923C7.5803 3.50769 7.45396 4.12308 7.13812 4.55385C6.88544 4.98462 6.44325 5.23077 5.81156 5.35385V5.41538C6.50642 5.53846 6.94861 5.84615 7.26445 6.21538C7.51713 6.64615 7.70664 7.26154 7.70664 8.06154C7.70664 8.98462 7.45396 9.72308 7.01178 10.2154C6.56959 10.7077 5.74839 10.9538 4.67452 10.9538H0V0ZM5.1167 4.30769C5.36938 4.06154 5.43255 3.69231 5.43255 3.2C5.43255 2.83077 5.36938 2.52308 5.30621 2.33846C5.24304 2.09231 5.1167 1.96923 4.9272 1.90769C4.67452 1.84615 4.42184 1.78462 3.97966 1.78462H2.08458V4.61538H3.97966C4.54818 4.55385 4.9272 4.49231 5.1167 4.30769ZM4.99036 9.16923C5.17987 9.10769 5.36938 8.92308 5.43255 8.73846C5.49572 8.55385 5.55889 8.24615 5.55889 7.81539C5.55889 7.38462 5.49572 7.07692 5.43255 6.89231C5.36938 6.70769 5.17987 6.52308 4.99036 6.46154C4.80086 6.4 4.48501 6.33846 4.04283 6.33846H2.08458V9.29231H4.04283C4.48501 9.29231 4.80086 9.23077 4.99036 9.16923Z" transform="translate(60.5 14.8616)" fill="#EDEDED"/>
<path d="M0 1.84615V0H2.02141V1.84615H0ZM0.0631694 11.8769V3.75385H2.02141V11.9385H0.0631694V11.8769Z" transform="translate(70.1017 14)" fill="#EDEDED"/>
<path d="M1.38972 10.5231V4H0V2.4H1.38972V0H3.34797V2.33846H4.99036V3.93846H3.34797V10.4615H1.38972V10.5231Z" transform="translate(73.576 15.3539)" fill="#EDEDED"/>
<path d="M8.59101 11.0154L6.82227 3.07692H6.7591L5.05353 11.0154H2.33726L0 0H2.14775L3.72698 8.61539H3.85332L5.68523 0H8.02248L9.91756 8.61539H10.0439L11.56 0H13.6445L11.3705 11.0154H8.59101Z" transform="translate(79.4507 14.8616)" fill="#EDEDED"/>
<path d="M4.54818 7.50769C4.54818 6.76923 4.54818 6.27692 4.48501 6.03077C4.42184 5.72308 4.2955 5.53846 4.16916 5.47692C4.04283 5.41538 3.72698 5.35385 3.2848 5.35385C2.84261 5.35385 2.58994 5.41538 2.40043 5.6C2.21092 5.72308 2.08458 5.96923 2.02141 6.27692C1.95824 6.58462 1.95824 7.07692 1.95824 7.69231V11.9385H0V0H1.89507V4.67692H2.02141C2.21092 4.30769 2.4636 4 2.84261 3.87692C3.22163 3.69231 3.66381 3.63077 4.23233 3.63077C4.86403 3.63077 5.36938 3.75385 5.68523 3.93846C6.00107 4.12308 6.25375 4.49231 6.31692 4.92308C6.44325 5.35385 6.50643 5.90769 6.50643 6.70769V11.9385H4.54818V7.50769Z" transform="translate(94.6113 14)" fill="#EDEDED"/>
<path d="M0 1.84615V0H2.02141V1.84615H0ZM0 11.8769V3.75385H2.02141V11.9385H0V11.8769Z" transform="translate(103.329 14)" fill="#EDEDED"/>
<path d="M1.38972 10.5231V4H0V2.4H1.38972V0H3.34796V2.33846H4.99036V3.93846H3.34796V10.4615H1.38972V10.5231Z" transform="translate(106.803 15.3539)" fill="#EDEDED"/>
<path d="M6.69593 4.86154H2.08458C2.08458 5.47692 2.14775 5.96923 2.21092 6.21538C2.27409 6.46154 2.46359 6.64615 2.71627 6.70769C2.96895 6.76923 3.4743 6.83077 4.106 6.83077C4.80086 6.83077 5.55889 6.76923 6.38008 6.70769V8.18462C6.06424 8.24615 5.62205 8.30769 5.1167 8.36923C4.61135 8.43077 4.10599 8.43077 3.60064 8.43077C2.52676 8.43077 1.70556 8.30769 1.20021 8C0.694857 7.75385 0.379011 7.32308 0.252673 6.76923C0.126334 6.21538 0 5.35385 0 4.24615C0 3.13846 0.0631653 2.33846 0.252673 1.72308C0.379011 1.16923 0.694857 0.738461 1.20021 0.430769C1.70556 0.123077 2.4636 0 3.4743 0C4.48501 0 5.17987 0.123077 5.62205 0.430769C6.06424 0.738461 6.31691 1.10769 6.44325 1.66154C6.56959 2.21538 6.63276 3.07692 6.63276 4.24615V4.86154H6.69593ZM2.58993 1.78462C2.40043 1.90769 2.27409 2.03077 2.21092 2.33846C2.14775 2.58462 2.08458 3.01538 2.08458 3.63077H4.80086C4.80086 3.01538 4.73768 2.64615 4.67451 2.33846C4.61135 2.09231 4.48501 1.90769 4.2955 1.78462C4.10599 1.72308 3.85332 1.66154 3.4743 1.66154C3.09529 1.6 2.77944 1.66154 2.58993 1.78462Z" transform="translate(112.804 17.5692)" fill="#EDEDED"/>
</svg>
